<svg width="64" height="57" viewBox="0 0 64 57" fill="none" xmlns="http://www.w3.org/2000/svg">
<path d="M19.675 34.4539C18.1793 35.336 16.7048 36.2057 15.2384 37.0706C14.9883 36.9665 0.386533 28.3663 1.41243e-07 28.0978C-0.000133006 27.9946 0.0939009 27.9811 0.156002 27.9443C1.23177 27.307 2.30902 26.6721 3.38591 26.0366C6.22855 24.3592 9.07104 22.6816 11.9139 21.0045C12.9424 20.3978 13.9716 19.7924 15.0009 19.187C15.068 19.1475 15.1385 19.1136 15.2204 19.0703C20.2857 22.0575 25.3491 25.0436 30.3996 28.022C30.4183 28.1541 30.3251 28.1721 30.2628 28.2091C29.6429 28.5772 29.0215 28.9428 28.4005 29.3091C26.6928 30.3163 24.9851 31.3237 23.2773 32.3308C22.0838 33.0346 20.89 33.7379 19.675 34.4539Z" fill="#4385F4"/>
<path d="M29.0979 30.7573C29.5733 30.4743 30.0272 30.2035 30.4826 29.935C30.7233 29.7931 30.9665 29.6553 31.2017 29.5195C31.3104 29.5767 31.2909 29.6676 31.2727 29.7352C31.2156 29.9462 31.2278 30.1596 31.2278 30.3729C31.2273 35.94 31.2274 41.507 31.2274 47.0741C31.2274 47.2088 31.2274 47.3436 31.2274 47.4757C31.1277 47.5855 31.0123 47.6527 30.8958 47.7207C30.4491 47.9816 30.0045 48.2462 29.5582 48.508C29.0829 48.7868 28.6056 49.0625 28.1309 49.3424C27.724 49.5824 27.3207 49.8282 26.9137 50.068C26.4389 50.3478 25.961 50.6225 25.486 50.9019C25.0886 51.1357 24.6941 51.3746 24.2968 51.6087C23.8123 51.8942 23.3255 52.1758 22.8411 52.4614C22.4439 52.6956 22.0497 52.9349 21.6524 53.1689C21.1679 53.4544 20.6809 53.7357 20.1962 54.0208C19.8085 54.2489 19.4231 54.4812 19.0355 54.7096C18.5413 55.0008 18.0452 55.2886 17.5514 55.5804C17.1544 55.815 16.7593 56.0527 16.3641 56.2903C16.2694 56.3472 16.1829 56.4237 16.0371 56.4041C16.0259 56.3521 16.0083 56.3015 16.0052 56.2499C15.9997 56.1601 16.0029 56.0697 16.0029 55.9795C16.0028 50.2773 16.0028 44.575 16.0028 38.8727C16.0028 38.7493 16.0028 38.6259 16.0028 38.4896C16.1375 38.4017 16.2648 38.3116 16.3986 38.2324C17.2695 37.7165 18.1411 37.2018 19.0139 36.6892C19.5861 36.353 20.162 36.0232 20.7338 35.6864C21.412 35.2868 22.0866 34.8808 22.7648 34.481C23.3558 34.1326 23.9508 33.7907 24.5422 33.4428C25.2013 33.0551 25.8578 32.6627 26.5166 32.2743C27.1173 31.9201 27.7195 31.5686 28.3209 31.2156C28.5732 31.0676 28.8249 30.9189 29.0979 30.7573Z" fill="#AECCFF"/>
<path d="M39.8399 24.3133C40.3088 24.0402 40.7574 23.7816 41.2042 23.52C41.8259 23.1561 42.4464 22.7902 43.0672 22.4247C43.7946 21.9964 44.5207 21.5658 45.2493 21.1395C45.9974 20.7018 46.7484 20.2689 47.4971 19.8323C47.8277 19.6395 48.1553 19.4417 48.4854 19.2482C48.5823 19.1913 48.6834 19.1414 48.8052 19.0762C48.9055 19.1283 49.0165 19.18 49.1217 19.2416C50.0056 19.7592 50.8887 20.2781 51.7715 20.7975C52.6155 21.2941 53.4579 21.7934 54.3028 22.2884C55.0507 22.7265 55.8021 23.1586 56.5501 23.5964C57.1038 23.9204 57.6536 24.2512 58.2072 24.5755C58.955 25.0136 59.7052 25.4478 60.4537 25.8849C60.9688 26.1857 61.4828 26.4885 61.9972 26.7907C62.628 27.1613 63.2586 27.5321 63.8891 27.9032C63.9275 27.9258 63.9637 27.952 63.9941 27.9719C64.0166 28.0561 63.9587 28.0804 63.9131 28.1081C63.6246 28.2834 63.3366 28.4597 63.0454 28.6305C62.4627 28.972 61.8774 29.309 61.2945 29.6501C60.6727 30.0139 60.0527 30.3806 59.4317 30.7457C58.4323 31.3333 57.4336 31.9221 56.4331 32.5078C55.6851 32.9456 54.9336 33.3775 54.1855 33.8153C53.6318 34.1393 53.0825 34.4707 52.5289 34.795C51.7811 35.2331 51.0307 35.667 50.282 36.1037C49.8542 36.3532 49.4245 36.5997 49.0021 36.8582C48.8713 36.9382 48.7699 36.9513 48.6318 36.8692C47.6937 36.3108 46.7513 35.7594 45.8087 35.2083C45.0605 34.7709 44.3095 34.338 43.5608 33.9013C43.0357 33.5951 42.5123 33.2861 41.9883 32.9781C41.377 32.6188 40.7657 32.2594 40.1546 31.8997C39.4271 31.4715 38.7008 31.0413 37.9721 30.6151C37.224 30.1774 36.4727 29.7451 35.7246 29.3074C35.1709 28.9834 34.6203 28.654 34.0679 28.3279C33.9141 28.2371 33.7585 28.1492 33.5781 28.0452C33.6336 27.9889 33.6632 27.9434 33.705 27.9186C34.4704 27.466 35.2374 27.0161 36.0038 26.5652C36.7411 26.1315 37.4777 25.6966 38.2154 25.2635C38.7492 24.95 39.2843 24.6387 39.8399 24.3133Z" fill="#FFAAA3"/>
<path d="M47.9308 56.0855C47.8408 56.0411 47.7477 56.0019 47.6613 55.9513C46.2901 55.1491 44.9197 54.3456 43.5492 53.542C42.8509 53.1326 42.1531 52.7224 41.4548 52.313C40.8148 51.9379 40.174 51.5639 39.534 51.1887C38.8648 50.7964 38.1963 50.4029 37.5271 50.0107C36.8871 49.6355 36.2464 49.2615 35.6063 48.8863C34.9371 48.4941 34.2684 48.1008 33.5992 47.7086C33.3581 47.5672 33.1159 47.4275 32.8723 47.286C32.8327 47.1442 32.8491 47.009 32.849 46.8762C32.8481 42.4013 32.8481 37.9264 32.8484 33.4514C32.8485 32.1777 32.8498 30.904 32.8771 29.5957C32.9169 29.5556 32.9301 29.5503 32.9434 29.5449C33.0329 29.5916 33.1246 29.6345 33.2117 29.6854C33.9495 30.1164 34.6864 30.5488 35.4235 30.9808C36.0635 31.3559 36.7034 31.7311 37.3433 32.1064C38.0026 32.493 38.6617 32.8798 39.3211 33.2663C39.9708 33.6471 40.6206 34.0276 41.2703 34.4082C43.4073 35.6601 45.5444 36.9119 47.6811 38.1642C47.7869 38.2262 47.8902 38.2926 48.0038 38.3626C48.0038 38.463 48.0038 38.5521 48.0038 38.6411C48.0037 44.3892 48.0036 50.1373 48.0034 55.8855C48.0034 55.908 48.0022 55.9305 47.9824 55.9924C47.9463 56.0459 47.9355 56.0639 47.9308 56.0855Z" fill="#EA4335"/>
<path d="M47.9846 0.0745561C47.9879 0.198355 47.9941 0.322155 47.9942 0.445954C47.9946 6.05904 47.9946 11.6721 47.9946 17.2852C47.9946 17.4086 47.9946 17.532 47.9946 17.6677C47.6233 17.927 47.2214 18.1259 46.8409 18.3591C46.4568 18.5946 46.0646 18.817 45.6759 19.045C45.2887 19.2722 44.9024 19.5008 44.5141 19.726C44.1157 19.9571 43.7137 20.1819 43.3163 20.4148C42.9279 20.6425 42.5443 20.8784 42.1569 21.1078C41.7706 21.3365 41.3822 21.5615 40.9948 21.7884C40.606 22.0162 40.2173 22.2443 39.8286 22.4723C39.4413 22.6993 39.0553 22.9285 38.6664 23.1526C38.2766 23.3771 37.8811 23.5917 37.4933 23.8195C37.0957 24.053 36.7059 24.2997 36.3099 24.5359C35.9243 24.7658 35.5351 24.9894 35.1477 25.2162C34.7587 25.4439 34.3705 25.6726 33.9813 25.8998C33.5953 26.1252 33.2086 26.3492 32.8332 26.5674C32.7398 26.5327 32.7616 26.4679 32.7588 26.4176C32.7536 26.3278 32.7569 26.2374 32.7569 26.1472C32.7568 20.5454 32.7568 14.9436 32.7572 9.34176C32.7572 9.19637 32.7621 9.05097 32.7642 8.93177C33.2797 8.61937 33.7685 8.32147 34.2593 8.02684C34.3839 7.95209 34.5169 7.89168 34.6422 7.81803C35.3012 7.43052 35.9587 7.04057 36.6171 6.65204C37.4985 6.13191 38.3802 5.61231 39.2618 5.09247C40.142 4.57346 41.0221 4.05443 41.9023 3.5354C42.7824 3.01638 43.6626 2.49736 44.5427 1.97834C45.4229 1.45932 46.3029 0.94008 47.1833 0.421439C47.3854 0.302373 47.5887 0.18535 47.8383 0.0664062C47.9183 0.0684702 47.9514 0.0715131 47.9846 0.0745561Z" fill="#34A853"/>
<path d="M31.0728 26.5317C30.9422 26.4672 30.8071 26.4104 30.6818 26.3369C29.8366 25.8413 28.9933 25.3422 28.1496 24.8439C27.3932 24.3972 26.6369 23.9501 25.8806 23.5033C25.0466 23.0107 24.2124 22.5185 23.3786 22.0257C22.4283 21.4642 21.4791 20.901 20.528 20.3408C19.5576 19.7692 18.5853 19.2007 17.6142 18.6302C17.1092 18.3335 16.6069 18.0321 16.0994 17.74C15.9777 17.6699 15.9126 17.5867 15.9246 17.4442C15.9311 17.3658 15.9256 17.2865 15.9256 17.2075C15.9255 11.6158 15.9254 6.02414 15.9266 0.432443C15.9266 0.300433 15.9051 0.16506 15.9537 0.0298574C15.9941 0.0323238 16.0327 0.0232755 16.0574 0.0377935C21.0868 2.99248 26.1079 5.96108 31.145 8.92997C31.1484 9.07669 31.1542 9.21002 31.1543 9.34334C31.1548 11.7784 31.1547 14.2135 31.1547 16.6486C31.1547 19.7827 31.1547 22.9167 31.1545 26.0508C31.1545 26.1861 31.1524 26.3213 31.1294 26.4902C31.096 26.5264 31.0844 26.5291 31.0728 26.5317Z" fill="#8CEFA7"/>
<path d="M47.9865 0.0507457C47.9521 0.0709011 47.919 0.0678582 47.8613 0.0593228C47.8802 0.00549517 47.9245 -0.037694 47.9865 0.0507457Z" fill="#57B771"/>
<path d="M31.082 26.5411C31.0844 26.5271 31.096 26.5245 31.1253 26.5195C31.1257 26.5289 31.1085 26.5406 31.082 26.5411Z" fill="#9EF2B5"/>
<path d="M32.9328 29.531C32.9318 29.5496 32.9185 29.555 32.8842 29.5639C32.8556 29.52 32.8748 29.5036 32.9328 29.531Z" fill="#ED6155"/>
<path d="M47.9529 56.09C47.9365 56.0636 47.9474 56.0456 47.9782 56.0234C47.986 56.0418 47.98 56.0682 47.9529 56.09Z" fill="#EB5043"/>
</svg>
