<svg width="3785" height="3336" viewBox="0 0 3785 3336" fill="none" xmlns="http://www.w3.org/2000/svg">
<path d="M1163.38 2037.3C1074.94 2089.46 987.754 2140.89 901.046 2192.03C886.256 2185.87 22.8556 1677.34 8.35167e-06 1661.46C-0.00786465 1655.36 5.55235 1654.56 9.22437 1652.39C72.8342 1614.7 136.532 1577.16 200.209 1539.58C368.294 1440.4 536.369 1341.2 704.466 1242.03C765.28 1206.16 826.138 1170.36 886.999 1134.56C890.971 1132.22 895.14 1130.22 899.981 1127.66C1199.49 1304.29 1498.89 1480.86 1797.52 1656.98C1798.63 1664.79 1793.12 1665.85 1789.44 1668.04C1752.78 1689.81 1716.04 1711.43 1679.32 1733.08C1578.34 1792.64 1477.37 1852.21 1376.38 1911.76C1305.81 1953.38 1235.22 1994.96 1163.38 2037.3Z" fill="#4385F4"/>
<path d="M1720.62 1818.7C1748.74 1801.97 1775.58 1785.95 1802.5 1770.08C1816.73 1761.68 1831.11 1753.53 1845.02 1745.51C1851.45 1748.89 1850.3 1754.26 1849.22 1758.26C1845.85 1770.73 1846.56 1783.36 1846.56 1795.97C1846.54 2125.15 1846.54 2454.34 1846.54 2783.52C1846.54 2791.49 1846.54 2799.45 1846.54 2807.27C1840.64 2813.76 1833.82 2817.73 1826.94 2821.75C1800.52 2837.18 1774.23 2852.83 1747.84 2868.31C1719.74 2884.79 1691.52 2901.1 1663.45 2917.65C1639.39 2931.83 1615.54 2946.37 1591.47 2960.55C1563.4 2977.09 1535.14 2993.34 1507.05 3009.86C1483.55 3023.69 1460.23 3037.81 1436.74 3051.65C1408.09 3068.53 1379.31 3085.18 1350.66 3102.07C1327.18 3115.92 1303.86 3130.07 1280.37 3143.91C1251.72 3160.79 1222.93 3177.42 1194.27 3194.28C1171.34 3207.77 1148.56 3221.5 1125.64 3235.01C1096.42 3252.23 1067.08 3269.25 1037.88 3286.5C1014.41 3300.37 991.042 3314.43 967.675 3328.48C962.076 3331.84 956.962 3336.37 948.343 3335.21C947.677 3332.13 946.638 3329.14 946.452 3326.09C946.129 3320.78 946.317 3315.44 946.317 3310.1C946.314 2972.92 946.315 2635.75 946.315 2298.57C946.315 2291.27 946.315 2283.97 946.315 2275.91C954.275 2270.72 961.806 2265.39 969.716 2260.71C1021.21 2230.2 1072.75 2199.77 1124.36 2169.45C1158.19 2149.58 1192.25 2130.07 1226.05 2110.16C1266.16 2086.53 1306.04 2062.52 1346.15 2038.88C1381.1 2018.28 1416.28 1998.07 1451.24 1977.5C1490.22 1954.57 1529.04 1931.37 1567.99 1908.4C1603.51 1887.45 1639.12 1866.67 1674.68 1845.8C1689.6 1837.05 1704.48 1828.25 1720.62 1818.7Z" fill="#AECCFF"/>
<path d="M2355.81 1437.68C2383.53 1421.54 2410.06 1406.24 2436.48 1390.77C2473.24 1369.25 2509.93 1347.62 2546.64 1326.01C2589.65 1300.68 2632.58 1275.22 2675.67 1250.01C2719.9 1224.13 2764.31 1198.54 2808.58 1172.72C2828.12 1161.32 2847.49 1149.62 2867.01 1138.18C2872.75 1134.82 2878.72 1131.87 2885.93 1128.01C2891.85 1131.09 2898.42 1134.15 2904.64 1137.79C2956.91 1168.4 3009.12 1199.08 3061.32 1229.79C3111.23 1259.15 3161.04 1288.68 3211 1317.95C3255.22 1343.85 3299.65 1369.41 3343.88 1395.29C3376.62 1414.45 3409.13 1434.01 3441.86 1453.19C3486.08 1479.09 3530.44 1504.77 3574.7 1530.61C3605.16 1548.4 3635.55 1566.3 3665.97 1584.17C3703.26 1606.09 3740.56 1628.01 3777.84 1649.96C3780.11 1651.29 3782.25 1652.84 3784.04 1654.02C3785.37 1659 3781.95 1660.43 3779.26 1662.07C3762.19 1672.44 3745.17 1682.86 3727.95 1692.96C3693.49 1713.16 3658.88 1733.08 3624.41 1753.25C3587.65 1774.77 3550.99 1796.44 3514.27 1818.03C3455.18 1852.78 3396.12 1887.6 3336.96 1922.23C3292.73 1948.12 3248.29 1973.65 3204.06 1999.54C3171.32 2018.7 3138.84 2038.3 3106.11 2057.47C3061.89 2083.38 3017.52 2109.03 2973.25 2134.85C2947.95 2149.61 2922.55 2164.19 2897.57 2179.47C2889.83 2184.2 2883.84 2184.98 2875.68 2180.12C2820.2 2147.1 2764.48 2114.5 2708.75 2081.91C2664.5 2056.04 2620.1 2030.45 2575.82 2004.63C2544.78 1986.52 2513.83 1968.25 2482.85 1950.04C2446.7 1928.79 2410.55 1907.54 2374.42 1886.27C2331.4 1860.95 2288.45 1835.51 2245.37 1810.31C2201.13 1784.43 2156.71 1758.87 2112.47 1732.99C2079.73 1713.83 2047.18 1694.35 2014.51 1675.07C2005.42 1669.7 1996.22 1664.5 1985.55 1658.36C1988.83 1655.02 1990.58 1652.33 1993.05 1650.87C2038.31 1624.11 2083.66 1597.5 2128.98 1570.84C2172.58 1545.19 2216.13 1519.48 2259.75 1493.87C2291.32 1475.33 2322.96 1456.92 2355.81 1437.68Z" fill="#FFAAA3"/>
<path d="M2834.2 3316.34C2828.88 3313.71 2823.38 3311.39 2818.27 3308.4C2737.19 3260.96 2656.15 3213.45 2575.12 3165.94C2533.83 3141.73 2492.57 3117.47 2451.28 3093.27C2413.43 3071.08 2375.55 3048.97 2337.7 3026.78C2298.13 3003.58 2258.6 2980.32 2219.04 2957.12C2181.19 2934.94 2143.3 2912.82 2105.46 2890.64C2065.88 2867.45 2026.35 2844.19 1986.78 2821C1972.52 2812.64 1958.2 2804.38 1943.8 2796.01C1941.45 2787.63 1942.42 2779.63 1942.42 2771.78C1942.36 2507.18 1942.36 2242.57 1942.38 1977.97C1942.39 1902.65 1942.47 1827.34 1944.08 1749.97C1946.43 1747.61 1947.22 1747.29 1948 1746.97C1953.29 1749.73 1958.72 1752.27 1963.86 1755.28C2007.49 1780.76 2051.06 1806.33 2094.65 1831.88C2132.49 1854.06 2170.33 1876.25 2208.16 1898.43C2247.15 1921.29 2286.12 1944.17 2325.11 1967.02C2363.53 1989.54 2401.95 2012.04 2440.37 2034.54C2566.73 2108.57 2693.09 2182.59 2819.44 2256.64C2825.7 2260.3 2831.8 2264.23 2838.52 2268.37C2838.52 2274.31 2838.52 2279.57 2838.52 2284.84C2838.51 2624.73 2838.51 2964.62 2838.5 3304.5C2838.5 3305.84 2838.42 3307.17 2837.26 3310.83C2835.12 3313.99 2834.48 3315.05 2834.2 3316.34Z" fill="#EA4335"/>
<path d="M2837.37 4.37253C2837.57 11.6928 2837.94 19.0132 2837.94 26.3335C2837.97 358.239 2837.97 690.144 2837.97 1022.05C2837.97 1029.35 2837.97 1036.64 2837.97 1044.66C2816.01 1060 2792.25 1071.76 2769.75 1085.55C2747.04 1099.47 2723.85 1112.62 2700.86 1126.11C2677.97 1139.54 2655.13 1153.06 2632.17 1166.37C2608.61 1180.04 2584.84 1193.33 2561.34 1207.1C2538.37 1220.57 2515.69 1234.52 2492.78 1248.08C2469.94 1261.6 2446.98 1274.91 2424.07 1288.32C2401.08 1301.79 2378.1 1315.28 2355.11 1328.76C2332.21 1342.19 2309.39 1355.74 2286.39 1368.99C2263.34 1382.27 2239.96 1394.96 2217.02 1408.42C2193.52 1422.23 2170.47 1436.82 2147.05 1450.78C2124.25 1464.38 2101.24 1477.6 2078.33 1491.01C2055.33 1504.48 2032.37 1518 2009.36 1531.44C1986.54 1544.76 1963.67 1558 1941.47 1570.91C1935.95 1568.86 1937.24 1565.02 1937.07 1562.05C1936.77 1556.74 1936.96 1551.4 1936.96 1546.06C1936.96 1214.83 1936.96 883.587 1936.98 552.348C1936.98 543.75 1937.27 535.153 1937.4 528.105C1967.88 509.633 1996.78 492.017 2025.8 474.596C2033.17 470.176 2041.04 466.603 2048.44 462.249C2087.41 439.335 2126.29 416.277 2165.22 393.303C2217.33 362.547 2269.47 331.823 2321.6 301.084C2373.64 270.395 2425.69 239.705 2477.73 209.014C2529.77 178.324 2581.82 147.634 2633.86 116.944C2685.9 86.2543 2737.94 55.5515 2790 24.8839C2801.95 17.8435 2813.97 10.9239 2828.73 3.89062C2833.45 4.01267 2835.41 4.1926 2837.37 4.37253Z" fill="#34A853"/>
<path d="M1837.27 1568.77C1829.55 1564.96 1821.56 1561.6 1814.15 1557.25C1764.17 1527.94 1714.31 1498.43 1664.42 1468.97C1619.69 1442.56 1574.98 1416.12 1530.25 1389.7C1480.94 1360.57 1431.62 1331.47 1382.31 1302.33C1326.12 1269.12 1269.99 1235.82 1213.76 1202.7C1156.37 1168.9 1098.88 1135.29 1041.46 1101.55C1011.6 1084 981.903 1066.19 951.891 1048.91C944.694 1044.77 940.847 1039.85 941.554 1031.42C941.942 1026.79 941.613 1022.09 941.613 1017.43C941.612 686.787 941.603 356.147 941.674 25.5063C941.676 17.7004 940.406 9.69571 943.276 1.70111C945.667 1.84695 947.947 1.31192 949.408 2.17038C1246.8 176.883 1543.7 352.418 1841.54 527.97C1841.74 536.646 1842.08 544.53 1842.09 552.413C1842.12 696.402 1842.11 840.39 1842.11 984.379C1842.11 1169.7 1842.11 1355.02 1842.1 1540.33C1842.1 1548.33 1841.97 1556.33 1840.62 1566.31C1838.64 1568.46 1837.95 1568.61 1837.27 1568.77Z" fill="#8CEFA7"/>
<path d="M2837.45 3.00062C2835.41 4.19243 2833.45 4.01249 2830.05 3.50779C2831.16 0.324933 2833.78 -2.22887 2837.45 3.00062Z" fill="#57B771"/>
<path d="M1837.81 1569.44C1837.95 1568.61 1838.64 1568.46 1840.37 1568.16C1840.4 1568.72 1839.38 1569.41 1837.81 1569.44Z" fill="#9EF2B5"/>
<path d="M1947.28 1746.19C1947.22 1747.29 1946.43 1747.61 1944.4 1748.14C1942.71 1745.54 1943.85 1744.57 1947.28 1746.19Z" fill="#ED6155"/>
<path d="M2835.45 3316.61C2834.48 3315.05 2835.12 3313.99 2836.94 3312.68C2837.4 3313.77 2837.05 3315.33 2835.45 3316.61Z" fill="#EB5043"/>
</svg>
